<svg width="257" height="77" viewBox="0 0 257 77" fill="none" xmlns="http://www.w3.org/2000/svg">
<path d="M21.3135 13.5H26.7735V53.15C26.7735 54.45 26.2535 55.5333 25.2135 56.4L23.6535 57.7C22.6135 58.5667 21.5735 59 20.5335 59H8.70348C7.66348 59 6.62348 58.5667 5.58348 57.7L4.02348 56.4C2.98348 55.5333 2.46348 54.45 2.46348 53.15V48.6H7.92348V51.785C7.92348 52.435 7.94514 52.8683 7.98848 53.085C8.07514 53.2583 8.31348 53.4967 8.70348 53.8C9.09348 54.1033 9.39681 54.2983 9.61348 54.385C9.83014 54.4283 10.3285 54.45 11.1085 54.45H18.1285C18.9085 54.45 19.4068 54.4283 19.6235 54.385C19.8401 54.2983 20.1435 54.1033 20.5335 53.8C20.9235 53.4967 21.1401 53.2583 21.1835 53.085C21.2701 52.8683 21.3135 52.435 21.3135 51.785V13.5ZM67.8398 54.45V59H39.7598V13.5H45.2198V54.45H67.8398ZM73.9736 59V13.5H98.0236C99.1503 13.5 100.19 13.9333 101.144 14.8L107.384 20C108.424 20.8667 108.944 21.7333 108.944 22.6V49.9C108.944 50.7667 108.424 51.6333 107.384 52.5L101.144 57.7C100.19 58.5667 99.1503 59 98.0236 59H73.9736ZM103.484 47.95V24.55C103.484 23.6833 102.964 22.8167 101.924 21.95L98.8036 19.35C97.8503 18.4833 96.8103 18.05 95.6836 18.05H79.4336V54.45H95.6836C96.8103 54.45 97.8503 54.0167 98.8036 53.15L101.924 50.55C102.964 49.6833 103.484 48.8167 103.484 47.95Z" fill="#F3F3F3"/>
<path d="M153.332 34.584C156.212 34.584 158.456 35.412 160.064 37.068C161.672 38.724 162.476 41.124 162.476 44.268V60H159.848V44.34C159.848 41.892 159.224 40.056 157.976 38.832C156.752 37.584 155.072 36.96 152.936 36.96C150.68 36.96 148.916 37.62 147.644 38.94C146.372 40.236 145.736 42.228 145.736 44.916V60H143.108V44.34C143.108 41.892 142.508 40.056 141.308 38.832C140.108 37.584 138.44 36.96 136.304 36.96C134.024 36.96 132.236 37.62 130.94 38.94C129.668 40.236 129.032 42.228 129.032 44.916V60H126.368V34.8H128.924V39.012C129.62 37.572 130.652 36.48 132.02 35.736C133.388 34.968 135.008 34.584 136.88 34.584C138.848 34.584 140.528 35.004 141.92 35.844C143.336 36.66 144.356 37.812 144.98 39.3C145.7 37.764 146.78 36.6 148.22 35.808C149.684 34.992 151.388 34.584 153.332 34.584ZM177.689 60.18C175.865 60.18 174.221 59.772 172.757 58.956C171.293 58.116 170.141 56.964 169.301 55.5C168.461 54.036 168.041 52.38 168.041 50.532C168.041 48.684 168.461 47.028 169.301 45.564C170.141 44.1 171.293 42.96 172.757 42.144C174.221 41.328 175.865 40.92 177.689 40.92C179.513 40.92 181.157 41.328 182.621 42.144C184.085 42.96 185.225 44.1 186.041 45.564C186.881 47.028 187.301 48.684 187.301 50.532C187.301 52.38 186.881 54.036 186.041 55.5C185.225 56.964 184.085 58.116 182.621 58.956C181.157 59.772 179.513 60.18 177.689 60.18ZM177.689 57.912C179.033 57.912 180.233 57.612 181.289 57.012C182.369 56.388 183.209 55.512 183.809 54.384C184.409 53.256 184.709 51.972 184.709 50.532C184.709 49.092 184.409 47.808 183.809 46.68C183.209 45.552 182.369 44.688 181.289 44.088C180.233 43.464 179.033 43.152 177.689 43.152C176.345 43.152 175.133 43.464 174.053 44.088C172.997 44.688 172.157 45.552 171.533 46.68C170.933 47.808 170.633 49.092 170.633 50.532C170.633 51.972 170.933 53.256 171.533 54.384C172.157 55.512 172.997 56.388 174.053 57.012C175.133 57.612 176.345 57.912 177.689 57.912ZM201.843 58.848C201.363 59.28 200.775 59.616 200.079 59.856C199.383 60.072 198.651 60.18 197.883 60.18C196.107 60.18 194.739 59.7 193.779 58.74C192.819 57.78 192.339 56.424 192.339 54.672V36.924H194.895V41.064H200.619V43.224H194.895V54.528C194.895 55.656 195.171 56.52 195.723 57.12C196.275 57.696 197.079 57.984 198.135 57.984C199.287 57.984 200.223 57.66 200.943 57.012L201.843 58.848ZM213.548 60.18C211.724 60.18 210.08 59.772 208.616 58.956C207.152 58.116 206 56.964 205.16 55.5C204.32 54.036 203.9 52.38 203.9 50.532C203.9 48.684 204.32 47.028 205.16 45.564C206 44.1 207.152 42.96 208.616 42.144C210.08 41.328 211.724 40.92 213.548 40.92C215.372 40.92 217.016 41.328 218.48 42.144C219.944 42.96 221.084 44.1 221.9 45.564C222.74 47.028 223.16 48.684 223.16 50.532C223.16 52.38 222.74 54.036 221.9 55.5C221.084 56.964 219.944 58.116 218.48 58.956C217.016 59.772 215.372 60.18 213.548 60.18ZM213.548 57.912C214.892 57.912 216.092 57.612 217.148 57.012C218.228 56.388 219.068 55.512 219.668 54.384C220.268 53.256 220.568 51.972 220.568 50.532C220.568 49.092 220.268 47.808 219.668 46.68C219.068 45.552 218.228 44.688 217.148 44.088C216.092 43.464 214.892 43.152 213.548 43.152C212.204 43.152 210.992 43.464 209.912 44.088C208.856 44.688 208.016 45.552 207.392 46.68C206.792 47.808 206.492 49.092 206.492 50.532C206.492 51.972 206.792 53.256 207.392 54.384C208.016 55.512 208.856 56.388 209.912 57.012C210.992 57.612 212.204 57.912 213.548 57.912ZM230.826 44.772C231.426 43.5 232.314 42.54 233.49 41.892C234.69 41.244 236.166 40.92 237.918 40.92V43.404L237.306 43.368C235.314 43.368 233.754 43.98 232.626 45.204C231.498 46.428 230.934 48.144 230.934 50.352V60H228.378V41.064H230.826V44.772ZM247.763 60.18C246.227 60.18 244.751 59.964 243.335 59.532C241.943 59.076 240.851 58.512 240.059 57.84L241.211 55.824C242.003 56.448 242.999 56.964 244.199 57.372C245.399 57.756 246.647 57.948 247.943 57.948C249.671 57.948 250.943 57.684 251.759 57.156C252.599 56.604 253.019 55.836 253.019 54.852C253.019 54.156 252.791 53.616 252.335 53.232C251.879 52.824 251.303 52.524 250.607 52.332C249.911 52.116 248.987 51.912 247.835 51.72C246.299 51.432 245.063 51.144 244.127 50.856C243.191 50.544 242.387 50.028 241.715 49.308C241.067 48.588 240.743 47.592 240.743 46.32C240.743 44.736 241.403 43.44 242.723 42.432C244.043 41.424 245.879 40.92 248.231 40.92C249.455 40.92 250.679 41.088 251.903 41.424C253.127 41.736 254.135 42.156 254.927 42.684L253.811 44.736C252.251 43.656 250.391 43.116 248.231 43.116C246.599 43.116 245.363 43.404 244.523 43.98C243.707 44.556 243.299 45.312 243.299 46.248C243.299 46.968 243.527 47.544 243.983 47.976C244.463 48.408 245.051 48.732 245.747 48.948C246.443 49.14 247.403 49.344 248.627 49.56C250.139 49.848 251.351 50.136 252.263 50.424C253.175 50.712 253.955 51.204 254.603 51.9C255.251 52.596 255.575 53.556 255.575 54.78C255.575 56.436 254.879 57.756 253.487 58.74C252.119 59.7 250.211 60.18 247.763 60.18Z" fill="#F3F3F3"/>
</svg>
